Coordinates
version=1
nRows=32
nColumns=12
inDegrees=yes

Units are S.I. units (second, meters, Newtons, ...)
Angles are in degrees

endheader
time	SC_y	SC_z	SC_x	AC_y	AC_z	AC_x	GH_y	GH_z	GH_yy	EL_x	PS_y
       0.0              -12.87           31.2          60.47          50.31         -12.47          17.65          4.397          15.89         -49.82          127.6           93.6
   0.03125              -12.87           31.2          60.47          50.31         -12.47          17.65          4.387          15.88         -49.79          127.6           93.6
    0.0625              -12.87           31.2          60.48          50.31         -12.46          17.65          4.376          15.88         -49.76          127.6           93.6
   0.09375              -12.87          31.19          60.48          50.31         -12.46          17.65          4.365          15.87         -49.72          127.6          93.61
     0.125              -12.87          31.19          60.48          50.31         -12.46          17.65          4.352          15.87         -49.69          127.6          93.61
    0.1562              -12.87          31.19          60.48          50.31         -12.46          17.65           4.34          15.86         -49.65          127.6          93.61
    0.1875              -12.87          31.19          60.48          50.31         -12.45          17.65          4.326          15.85         -49.61          127.6          93.62
    0.2187              -12.87          31.18          60.49          50.31         -12.45          17.65          4.311          15.85         -49.56          127.5          93.62
      0.25              -12.87          31.18          60.49          50.31         -12.45          17.64          4.295          15.84         -49.52          127.5          93.62
    0.2812              -12.87          31.18          60.49          50.31         -12.44          17.64          4.278          15.83         -49.47          127.5          93.63
    0.3125              -12.87          31.17           60.5          50.31         -12.44          17.64           4.26          15.82         -49.41          127.5          93.63
    0.3437              -12.87          31.17           60.5          50.31         -12.43          17.64           4.24          15.81         -49.35          127.5          93.64
     0.375              -12.87          31.17           60.5          50.31         -12.43          17.64          4.219           15.8         -49.29          127.4          93.65
    0.4062              -12.87          31.16          60.51          50.31         -12.43          17.64          4.196          15.79         -49.22          127.4          93.65
    0.4375              -12.87          31.16          60.51          50.31         -12.42          17.64          4.171          15.78         -49.15          127.4          93.66
    0.4687              -12.87          31.15          60.52          50.31         -12.41          17.64          4.145          15.77         -49.07          127.3          93.67
       0.5              -12.87          31.15          60.52          50.31         -12.41          17.63          4.115          15.75         -48.98          127.3          93.68
    0.5312              -12.87          31.14          60.53          50.31          -12.4          17.63          4.084          15.74         -48.89          127.3          93.69
    0.5625              -12.87          31.13          60.53          50.31         -12.39          17.63          4.049          15.72         -48.78          127.2          93.69
    0.5937              -12.87          31.12          60.54           50.3         -12.38          17.63          4.011           15.7         -48.67          127.2          93.71
     0.625              -12.87          31.12          60.55           50.3         -12.38          17.62          3.969          15.68         -48.55          127.1          93.72
    0.6562              -12.87          31.11          60.55           50.3         -12.37          17.62          3.923          15.66         -48.41          127.1          93.73
    0.6875              -12.87           31.1          60.56           50.3         -12.35          17.62          3.873          15.64         -48.26          127.0          93.75
    0.7187              -12.88          31.09          60.57           50.3         -12.34          17.61          3.816          15.61         -48.09          126.9          93.76
      0.75              -12.88          31.08          60.58           50.3         -12.33          17.61          3.754          15.58         -47.91          126.9          93.78
    0.7812              -12.88          31.06           60.6           50.3         -12.31          17.61          3.684          15.55          -47.7          126.8           93.8
    0.8125              -12.88          31.05          60.61           50.3          -12.3           17.6          3.606          15.51         -47.47          126.7          93.82
    0.8437              -12.88          31.03          60.63           50.3         -12.28          17.59          3.518          15.47         -47.21          126.6          93.85
     0.875              -12.88          31.01          60.64           50.3         -12.26          17.59          3.419          15.42         -46.91          126.5          93.87
    0.9062              -12.88          30.99          60.66           50.3         -12.23          17.58          3.307          15.37         -46.58          126.3          93.91
    0.9375              -12.88          30.96          60.68           50.3          -12.2          17.57          3.178           15.3          -46.2          126.2          93.94
    0.9687              -12.89          30.94          60.71           50.3         -12.17          17.56           3.03          15.23         -45.76          126.0          93.98
